<svg xmlns="http://www.w3.org/2000/svg" width="840" height="588.5" viewBox="0 0 840 588.5"><path fill="#ED1C24" d="M829.678.204l10.292 587.97-.5.01L829.178.214zM793.625 8.024l14.815 578.54-.498.014-14.816-578.54zM757.593 15.765l19.3 569.036-.497.018-19.302-569.036zM721.532 23.55l23.803 559.577-.5.02L721.033 23.57zM685.485 31.332l28.313 550.115-.5.026-28.312-550.115zM649.405 39.085l32.77 540.65-.502.03-32.768-540.65zM613.386 46.828l37.272 531.133-.498.036-37.272-531.133zM577.32 54.606l41.763 521.677-.498.04-41.763-521.677zM541.27 62.353l46.236 512.185-.498.045-46.235-512.186zM505.22 70.122l50.73 502.713-.498.05-50.73-502.713zM469.16 77.917l55.243 493.27-.495.055-55.243-493.27zM433.093 85.677l59.714 483.807-.495.06L432.598 85.74zM397.05 93.46l64.233 474.336-.496.067-64.234-474.337zM360.986 101.21l68.7 464.865-.497.073-68.7-464.866zM324.956 108.965l73.195 455.36-.492.078-73.195-455.36zM288.886 116.757L366.6 562.673l-.493.086-77.714-445.917zM252.856 124.515l82.202 436.41-.49.093-82.202-436.41zM216.798 132.286l86.696 426.944-.49.1-86.696-426.945zM180.73 140.052l91.19 417.485-.49.107-91.187-417.485zM144.688 147.81l95.673 408.005-.486.114L144.2 147.924zM108.652 155.558l100.14 398.51-.484.123-100.14-398.51zM72.57 163.353l104.67 389.064-.483.13L72.087 163.48zM36.52 171.083L145.65 550.678l-.48.138L36.04 171.22zM.462 178.857L114.094 548.98l-.477.147L-.015 179.003z"/><g><path fill="#ED1C24" d="M829.342-.168l.105.49L.3 179.38l-.107-.487zM830.377 53.782l.094.49L10.53 212.518l-.095-.49zM831.192 106.503l.085.492L21.025 246.86l-.085-.49zM832.263 160.575l.073.494-801.1 118.884-.075-.493zM833.144 213.7l.062.497-791.624 99.73-.062-.496zM834.064 267.065l.05.497-782.187 80.043-.05-.497zM835.05 321.1l.037.5-772.903 59.066-.038-.5zM835.997 374.062l.027.5L72.6 414.852l-.026-.5zM836.91 427.422l.014.5-754.022 20.593-.014-.5zM93.215 481.296h744.66v.5H93.215zM103.534 515.182L838.836 534.6l-.013.5-735.302-19.418zM113.895 548.77l725.84 39.18-.027.5-725.84-39.18z"/></g></svg>